<?xml version="1.0" encoding="utf-8"?>
<!-- Generator: Adobe Illustrator 17.0.0, SVG Export Plug-In . SVG Version: 6.00 Build 0)  -->
<!DOCTYPE svg PUBLIC "-//W3C//DTD SVG 1.1//EN" "http://www.w3.org/Graphics/SVG/1.1/DTD/svg11.dtd">
<svg version="1.1" id="Layer_1" xmlns="http://www.w3.org/2000/svg" xmlns:xlink="http://www.w3.org/1999/xlink" x="0px" y="0px"
	 width="320px" height="50px" viewBox="0 0 320 50" enable-background="new 0 0 320 50" xml:space="preserve">
<g>
	<g>
		<g>
			<path fill="#FFFFFF" d="M19.728,21.016v9.924h1.674v2.184h-5.737V30.94h1.675v-9.924h-1.594v-2.184h5.574v2.184H19.728z"/>
			<path fill="#FFFFFF" d="M40.761,33.123h-2.408l-7.106-10.168v10.168h-2.389V18.832h2.409L38.393,29V18.832h2.368V33.123z"/>
			<path fill="#FFFFFF" d="M48.606,29.163h2.39c0.041,1.185,1.021,1.776,2.082,1.776c1.103,0,2.083-0.714,2.083-1.838
				c0-1.205-1.123-1.939-2.083-1.981c-0.122,0-1.101,0-2.143-0.469c-1.491-0.696-2.329-1.961-2.329-3.656
				c0-2.716,2.164-4.369,4.472-4.369c2.47,0,4.369,1.674,4.41,4.104H55.12c-0.04-1.184-0.96-1.716-2.042-1.716
				c-1.122,0-2.082,0.653-2.082,1.98c0,1.185,1.021,1.817,2.082,1.817c0.103,0,1.103,0,2.124,0.469
				c1.51,0.695,2.327,2.125,2.327,3.819c0,2.736-2.144,4.228-4.451,4.228C50.608,33.268,48.648,31.838,48.606,29.163z"/>
			<path fill="#FFFFFF" d="M74.869,23.017c0,4.187-4.777,4.187-4.777,4.187h-2.389v5.961h-2.39V18.832h4.778
				C70.092,18.832,74.869,18.832,74.869,23.017z M72.48,23.017c0-1.797-2.389-1.797-2.389-1.797h-2.389v3.594h2.389
				C70.092,24.813,72.48,24.813,72.48,23.017z"/>
			<path fill="#FFFFFF" d="M85.389,21.016v9.924h1.675v2.184h-5.736V30.94H83v-9.924h-1.593v-2.184h5.574v2.184H85.389z"/>
			<path fill="#FFFFFF" d="M98.827,27.163h-1.939v5.96h-2.389V18.832h4.758c0,0,4.776,0,4.776,4.164c0,2.307-1.47,3.329-2.755,3.799
				l2.918,6.328h-2.633L98.827,27.163z M96.888,24.793h2.369c0,0,2.389,0,2.389-1.797c0-1.776-2.389-1.776-2.389-1.776h-2.369
				V24.793z"/>
			<path fill="#FFFFFF" d="M118.454,31.47h-5.023l-0.613,1.653h-2.572l5.698-14.7l5.716,14.7h-2.572L118.454,31.47z M114.208,29.408
				h3.471l-1.735-4.962L114.208,29.408z"/>
			<path fill="#FFFFFF" d="M135.548,21.016h-3.001v12.107h-2.369V21.016h-3.001v-2.184h8.371V21.016z"/>
			<path fill="#FFFFFF" d="M145.761,21.016v9.924h1.676v2.184h-5.738V30.94h1.674v-9.924h-1.592v-2.184h5.574v2.184H145.761z"/>
			<path fill="#FFFFFF" d="M154.443,23.935c0-2.92,2.388-5.308,5.308-5.308c2.92,0,5.309,2.389,5.309,5.308
				c0,2.919-2.389,5.309-5.309,5.309C156.831,29.244,154.443,26.854,154.443,23.935z M164.406,33.123h-9.433v-2.367h9.433V33.123z
				 M156.811,23.935c0,1.633,1.307,2.94,2.94,2.94c1.635,0,2.939-1.307,2.939-2.94c0-1.633-1.305-2.939-2.939-2.939
				C158.118,20.996,156.811,22.303,156.811,23.935z"/>
			<path fill="#FFFFFF" d="M184.932,33.123h-2.409l-7.105-10.168v10.168h-2.39V18.832h2.411L182.564,29V18.832h2.368V33.123z"/>
			<path fill="#FFFFFF" d="M199.883,31.47h-5.022l-0.613,1.653h-2.572l5.697-14.7l5.717,14.7h-2.573L199.883,31.47z M195.637,29.408
				h3.471l-1.735-4.962L195.637,29.408z"/>
			<path fill="#FFFFFF" d="M217.489,30.735v2.388h-7.678V18.832h2.389v11.903H217.489z"/>
			<path fill="#FFFFFF" d="M228.273,21.016v9.924h1.676v2.184h-5.738V30.94h1.674v-9.924h-1.592v-2.184h5.573v2.184H228.273z"/>
			<path fill="#FFFFFF" d="M247.204,18.832l-5.717,14.66l-5.697-14.66h2.572l3.125,8.432l3.144-8.432H247.204z"/>
			<path fill="#FFFFFF" d="M257.071,21.016v9.924h1.674v2.184h-5.737V30.94h1.674v-9.924h-1.593v-2.184h5.574v2.184H257.071z"/>
			<path fill="#FFFFFF" d="M278.104,33.123h-2.409l-7.105-10.168v10.168h-2.389V18.832h2.409L275.735,29V18.832h2.369V33.123z"/>
			<path fill="#FFFFFF" d="M296.738,24.998v8.188h-2.082l-0.122-1.348c-1.164,1.082-2.369,1.491-4.064,1.491
				c-3.839,0-6.84-2.676-6.84-7.352c0-4.247,3.206-7.351,7.146-7.351c1.98,0,3.758,0.797,5.044,2.102l-1.675,1.676
				c-0.858-0.857-2.061-1.39-3.369-1.39c-2.635,0-4.756,1.839-4.756,4.962c0,3.49,2.121,4.962,4.756,4.962
				c1.43,0,2.695-0.613,3.573-1.613v-2.063h-2.388v-2.266H296.738z"/>
		</g>
	</g>
	<g>
		<g>
			<path fill="#FFFFFF" d="M304.335,19.168c0,1.539-1.242,2.782-2.803,2.782c-1.551,0-2.794-1.243-2.794-2.782
				c0-1.552,1.243-2.814,2.794-2.814C303.093,16.354,304.335,17.616,304.335,19.168z M303.532,19.168c0-1.114-0.878-2.011-2-2.011
				c-1.092,0-1.999,0.896-1.999,2.011c0,1.091,0.907,1.988,1.999,1.988C302.644,21.156,303.532,20.259,303.532,19.168z
				 M301.485,19.4h-0.373v1.121h-0.467V17.82h0.925c0,0,0.935,0,0.935,0.786c0,0.429-0.291,0.635-0.543,0.718l0.57,1.197h-0.504
				L301.485,19.4z M301.112,18.941h0.458c0,0,0.466,0,0.466-0.335c0-0.327-0.466-0.327-0.466-0.327h-0.458V18.941z"/>
		</g>
	</g>
</g>
</svg>
