<?xml version="1.0" encoding="utf-8"?>
<!-- Generator: Adobe Illustrator 17.0.0, SVG Export Plug-In . SVG Version: 6.00 Build 0)  -->
<!DOCTYPE svg PUBLIC "-//W3C//DTD SVG 1.1//EN" "http://www.w3.org/Graphics/SVG/1.1/DTD/svg11.dtd">
<svg version="1.1" id="Layer_1" xmlns="http://www.w3.org/2000/svg" xmlns:xlink="http://www.w3.org/1999/xlink" x="0px" y="0px"
	 width="320px" height="50px" viewBox="0 0 320 50" enable-background="new 0 0 320 50" xml:space="preserve">
<g>
	<path fill="#FFFFFF" d="M94.756,19.242c0-1.84-0.276-1.761-1.959-2.098V16.71h4.491l3.917,10.922h0.04l3.839-10.922h2.671v13.314
		h-1.979V18.254h-0.041l-4.153,11.771h-1.406l-4.134-11.653h-0.04v11.653h-1.246V19.242z"/>
	<path fill="#FFFFFF" d="M110.327,25.435c0-3.304,1.384-4.827,4.273-4.827c2.869,0,4.274,1.978,4.274,4.827
		c0,3.226-1.346,4.808-4.274,4.808C111.415,30.242,110.327,28.205,110.327,25.435 M114.601,29.57c1.938,0,2.097-2.157,2.097-4.136
		c0-1.818-0.178-4.153-2.097-4.153c-1.958,0-2.096,2.414-2.096,4.153C112.505,27.078,112.643,29.57,114.601,29.57"/>
	<path fill="#FFFFFF" d="M120.596,25.435c0-3.304,1.386-4.827,4.274-4.827c2.869,0,4.272,1.978,4.272,4.827
		c0,3.226-1.345,4.808-4.272,4.808C121.685,30.242,120.596,28.205,120.596,25.435 M124.87,29.57c1.938,0,2.096-2.157,2.096-4.136
		c0-1.818-0.177-4.153-2.096-4.153c-1.959,0-2.098,2.414-2.098,4.153C122.772,27.078,122.911,29.57,124.87,29.57"/>
	<path fill="#FFFFFF" d="M131.655,23.397c0-1.385-0.316-1.722-1.563-1.763v-0.394l3.541-0.634v2.612h0.04
		c0.278-0.912,0.891-2.612,2.474-2.612c0.357,0,0.732,0.041,1.068,0.1v1.879c-0.317-0.1-0.673-0.237-1.009-0.237
		c-1.999,0-2.573,1.564-2.573,2.948v4.726h-1.979V23.397z"/>
	<path fill="#FFFFFF" d="M139.411,21.616h-1.602v-0.791h1.602V19.5c0-1.584,0.692-3.324,3.066-3.324
		c2.533,0,3.402,0.889,3.621,2.334h-2.215c-0.02-0.712-0.277-1.662-1.267-1.662c-1.148,0-1.228,1.266-1.228,2.197v1.78h2.631v0.791
		h-2.631v8.41h-1.979V21.616z"/>
	<path fill="#FFFFFF" d="M146.97,23.397c0-1.385-0.317-1.722-1.523-1.763v-0.394l3.502-0.634v9.419h-1.979V23.397z M146.752,17.798
		c0-0.673,0.556-1.226,1.246-1.226c0.673,0,1.268,0.533,1.268,1.226c0,0.69-0.595,1.247-1.288,1.247
		C147.308,19.045,146.752,18.488,146.752,17.798"/>
	<path fill="#FFFFFF" d="M159.394,29.709c-0.375,0.137-1.424,0.533-2.789,0.533c-3.026,0-4.848-1.84-4.848-5.144
		c0-3.125,1.503-4.491,4.154-4.491c3.385,0,3.661,2.453,3.661,3.779h-5.638c0,1.979,0.811,4.788,3.6,4.788
		c0.831,0,1.524-0.199,1.859-0.336V29.709z M157.594,23.596c0-0.456-0.04-2.315-1.761-2.315c-1.483,0-1.898,1.563-1.898,2.315
		H157.594z"/>
	<path fill="#FFFFFF" d="M161.671,18.866c0-1.405-0.337-1.741-1.504-1.8v-0.398l3.481-0.493v13.849h-1.978V18.866z"/>
	<path fill="#FFFFFF" d="M172.434,28.918c-0.495,0.475-1.308,1.326-2.729,1.326c-2.574,0-3.543-2.16-3.543-4.631
		c0-2.513,1.01-5.007,3.621-5.007c1.623,0,2.236,0.833,2.612,1.485h0.039v-3.225c0-1.406-0.317-1.742-1.483-1.803v-0.394
		l3.462-0.496v13.852h-1.979V28.918z M172.434,24.841c0-1.108-0.218-3.163-2.099-3.163c-1.818,0-1.998,2.274-1.998,3.658
		c0,1.524,0.158,3.839,2.019,3.839c1.899,0,2.078-2.474,2.078-3.523V24.841z"/>
	<path fill="#FFFFFF" d="M186.619,29.648c-0.85,0.297-2.075,0.575-3.738,0.575c-4.095,0-6.192-2.592-6.192-7.123
		c0-4.215,1.226-6.45,5.836-6.45c1.564,0,2.829,0.277,3.799,0.533l0.178,3.126h-0.494c-0.197-1.147-1.009-2.888-3.719-2.888
		c-3.423,0-3.641,3.086-3.641,5.422c0,2.492,0.493,6.49,4.629,6.49c0.812,0,1.205-0.081,1.582-0.159v-4.434
		c0-1.503-0.752-1.621-1.722-1.621v-0.396h5.145v0.396c-0.99,0-1.663,0.118-1.663,1.621V29.648z"/>
	<path fill="#FFFFFF" d="M189.369,29.69c0.832,0,1.503-0.178,1.503-1.465v-5.402c0-1.186-0.909-1.245-1.503-1.285v-0.336
		l3.048-0.476v2.117h0.039c0.376-0.989,1.068-2.117,2.573-2.117c0.435,0,0.989,0.317,0.989,0.911c0,0.574-0.415,0.929-0.951,0.929
		c-0.594,0-0.85-0.475-1.127-0.475c-0.356,0-1.523,0.792-1.523,3.147v2.987c0,1.287,0.673,1.465,1.505,1.465v0.337h-4.553V29.69z"/>
	<path fill="#FFFFFF" d="M196.73,25.475c0-2.968,1.601-4.749,4.134-4.749c2.531,0,4.137,1.781,4.137,4.749s-1.606,4.749-4.137,4.749
		C198.331,30.224,196.73,28.442,196.73,25.475 M200.864,29.57c1.979,0,2.375-2.453,2.375-4.096c0-1.643-0.396-4.096-2.375-4.096
		c-1.979,0-2.373,2.453-2.373,4.096C198.491,27.117,198.886,29.57,200.864,29.57"/>
	<path fill="#FFFFFF" d="M213.31,27.848h-0.039c-0.257,0.654-0.85,2.376-2.967,2.376c-1.662,0-2.532-1.148-2.532-2.988v-4.412
		c0-1.187-0.911-1.246-1.506-1.285v-0.337l3.048-0.476v6.075c0,1.641,0.555,2.413,1.583,2.413c1.286,0,2.413-1.86,2.413-3.659
		v-2.732c0-1.187-0.91-1.246-1.502-1.285v-0.337l3.047-0.476v7.401c0,1.185,0.908,1.246,1.503,1.285v0.338l-3.048,0.474V27.848z"/>
	<path fill="#FFFFFF" d="M216.93,33.864c0.831,0,1.505-0.198,1.505-1.464v-9.578c0-1.186-0.93-1.245-1.505-1.285v-0.335l3.048-0.477
		v1.464h0.039c0.179-0.533,1.148-1.464,2.255-1.464c2.751,0,3.641,2.336,3.641,4.749c0,2.474-0.89,4.749-3.641,4.749
		c-1.226,0-1.978-0.97-2.255-1.523h-0.039v3.7c0,1.266,0.673,1.464,1.505,1.464V34.2h-4.553V33.864z M222.016,29.491
		c1.7,0,2.138-2.354,2.138-4.017c0-1.742-0.318-4.016-2.138-4.016c-1.563,0-2.038,2.314-2.038,4.016
		C219.977,27.354,220.513,29.491,222.016,29.491"/>
</g>
</svg>
